<svg xmlns="http://www.w3.org/2000/svg" width="24" height="24" fill="none" stroke="currentColor" stroke-width="2"
    stroke-linecap="round" stroke-linejoin="round" class="icon icon-tabler icons-tabler-outline icon-tabler-code-dots">
    <path d="M0 0h24v24H0z" stroke="none" />
    <path id="stroke"
        d="M15 12h.01M12 12h.01M9 12h.01M6 19a2 2 0 0 1-2-2v-4l-1-1 1-1V7a2 2 0 0 1 2-2M18 19a2 2 0 0 0 2-2v-4l1-1-1-1V7a2 2 0 0 0-2-2" />
    <style>
        #stroke {
            stroke: #000;
        }

        @media (prefers-color-scheme: dark) {
            #stroke {
                stroke: #FFF;
            }
        }
    </style>
</svg>